<svg width="1120" height="601" viewBox="0 0 1120 601" fill="none" xmlns="http://www.w3.org/2000/svg">
<path d="M560.858 38.3559L560.858 38.3559L560.863 38.3512L597.5 1.21866V75.5H523.219L560.858 38.3559Z" stroke="#CE3A8B"/>
<rect x="597.5" y="0.5" width="74" height="75" stroke="#CE3A8B"/>
<rect x="671.5" y="0.5" width="75" height="75" stroke="#CE3A8B"/>
<rect x="746.5" y="0.5" width="75" height="75" stroke="#CE3A8B"/>
<path d="M857.647 38.3528L894.793 75.5H821.5V1.23021L857.643 38.3481L857.642 38.3481L857.647 38.3528Z" stroke="#CE3A8B"/>
<rect x="895.5" y="0.5" width="75" height="75" stroke="#CE3A8B"/>
<rect x="0.5" y="75.5" width="75" height="75" stroke="#CE3A8B"/>
<rect x="75.5" y="75.5" width="74" height="75" stroke="#CE3A8B"/>
<path d="M188.642 109.651L149.5 149.771V75.5H223.768L188.651 109.642L188.651 109.641L188.642 109.651Z" stroke="#CE3A8B"/>
<path d="M188.642 109.651L149.5 149.771V75.5H223.768L188.651 109.642L188.651 109.641L188.642 109.651Z" stroke="#CE3A8B"/>
<rect x="224.5" y="75.5" width="74" height="75" stroke="#CE3A8B"/>
<rect x="298.5" y="75.5" width="75" height="75" stroke="#CE3A8B"/>
<rect x="373.5" y="75.5" width="75" height="75" stroke="#CE3A8B"/>
<rect x="448.5" y="75.5" width="74" height="75" stroke="#CE3A8B"/>
<rect x="522.5" y="75.5" width="75" height="75" stroke="#CE3A8B"/>
<rect x="597.5" y="75.5" width="74" height="75" stroke="#CE3A8B"/>
<rect x="671.5" y="75.5" width="75" height="75" stroke="#CE3A8B"/>
<rect x="746.5" y="75.5" width="75" height="75" stroke="#CE3A8B"/>
<rect x="821.5" y="75.5" width="74" height="75" stroke="#CE3A8B"/>
<rect x="895.5" y="75.5" width="75" height="75" stroke="#CE3A8B"/>
<rect x="-0.5" y="0.5" width="75" height="75" transform="matrix(-1 0 0 1 1119 150)" stroke="#CE3A8B"/>
<rect x="-0.5" y="0.5" width="74" height="75" transform="matrix(-1 0 0 1 1044 150)" stroke="#CE3A8B"/>
<rect x="-0.5" y="0.5" width="75" height="75" transform="matrix(-1 0 0 1 970 150)" stroke="#CE3A8B"/>
<rect x="-0.5" y="0.5" width="74" height="75" transform="matrix(-1 0 0 1 895 150)" stroke="#CE3A8B"/>
<rect x="-0.5" y="0.5" width="75" height="75" transform="matrix(-1 0 0 1 821 150)" stroke="#CE3A8B"/>
<rect x="-0.5" y="0.5" width="75" height="75" transform="matrix(-1 0 0 1 746 150)" stroke="#CE3A8B"/>
<rect x="-0.5" y="0.5" width="74" height="75" transform="matrix(-1 0 0 1 671 150)" stroke="#CE3A8B"/>
<rect x="-0.5" y="0.5" width="75" height="75" transform="matrix(-1 0 0 1 448 150)" stroke="#CE3A8B"/>
<rect x="-0.5" y="0.5" width="75" height="75" transform="matrix(-1 0 0 1 373 150)" stroke="#CE3A8B"/>
<rect x="-0.5" y="0.5" width="74" height="75" transform="matrix(-1 0 0 1 298 150)" stroke="#CE3A8B"/>
<rect x="-0.5" y="0.5" width="75" height="75" transform="matrix(-1 0 0 1 224 150)" stroke="#CE3A8B"/>
<rect x="-0.5" y="0.5" width="74" height="75" transform="matrix(-1 0 0 1 149 150)" stroke="#CE3A8B"/>
<path d="M37.6464 187.646L74.7929 150.5H0.5V224.793L37.6464 187.646Z" stroke="#CE3A8B"/>
<rect x="-0.5" y="0.5" width="75" height="75" transform="matrix(-1 0 0 1 1119 225)" stroke="#CE3A8B"/>
<path d="M1043.77 225.5H970.5V299.746L1006.14 262.156L1006.14 262.149L1006.15 262.142L1043.77 225.5Z" stroke="#CE3A8B"/>
<rect x="-0.5" y="0.5" width="75" height="75" transform="matrix(-1 0 0 1 970 225)" stroke="#CE3A8B"/>
<rect x="-0.5" y="0.5" width="74" height="75" transform="matrix(-1 0 0 1 895 225)" stroke="#CE3A8B"/>
<rect x="-0.5" y="0.5" width="75" height="75" transform="matrix(-1 0 0 1 821 225)" stroke="#CE3A8B"/>
<rect x="-0.5" y="0.5" width="75" height="75" transform="matrix(-1 0 0 1 746 225)" stroke="#CE3A8B"/>
<rect x="-0.5" y="0.5" width="74" height="75" transform="matrix(-1 0 0 1 671 225)" stroke="#CE3A8B"/>
<rect x="-0.5" y="0.5" width="75" height="75" transform="matrix(-1 0 0 1 448 225)" stroke="#CE3A8B"/>
<rect x="-0.5" y="0.5" width="75" height="75" transform="matrix(-1 0 0 1 373 225)" stroke="#CE3A8B"/>
<rect x="-0.5" y="0.5" width="74" height="75" transform="matrix(-1 0 0 1 298 225)" stroke="#CE3A8B"/>
<path d="M187.858 262.151L224.5 299.77V225.5H150.23L187.849 262.142L187.849 262.142L187.858 262.151Z" stroke="#CE3A8B"/>
<rect x="-0.5" y="0.5" width="74" height="75" transform="matrix(-1 0 0 1 149 225)" stroke="#CE3A8B"/>
<rect x="-0.5" y="0.5" width="75" height="75" transform="matrix(-1 0 0 1 75 225)" stroke="#CE3A8B"/>
<rect x="-0.5" y="0.5" width="75" height="75" transform="matrix(-1 0 0 1 1119 300)" stroke="#CE3A8B"/>
<rect x="-0.5" y="0.5" width="74" height="75" transform="matrix(-1 0 0 1 1044 300)" stroke="#CE3A8B"/>
<rect x="-0.5" y="0.5" width="75" height="75" transform="matrix(-1 0 0 1 970 300)" stroke="#CE3A8B"/>
<rect x="-0.5" y="0.5" width="74" height="75" transform="matrix(-1 0 0 1 895 300)" stroke="#CE3A8B"/>
<rect x="-0.5" y="0.5" width="75" height="75" transform="matrix(-1 0 0 1 821 300)" stroke="#CE3A8B"/>
<rect x="-0.5" y="0.5" width="75" height="75" transform="matrix(-1 0 0 1 746 300)" stroke="#CE3A8B"/>
<rect x="-0.5" y="0.5" width="74" height="75" transform="matrix(-1 0 0 1 671 300)" stroke="#CE3A8B"/>
<rect x="-0.5" y="0.5" width="75" height="75" transform="matrix(-1 0 0 1 448 300)" stroke="#CE3A8B"/>
<rect x="-0.5" y="0.5" width="75" height="75" transform="matrix(-1 0 0 1 373 300)" stroke="#CE3A8B"/>
<rect x="-0.5" y="0.5" width="74" height="75" transform="matrix(-1 0 0 1 298 300)" stroke="#CE3A8B"/>
<rect x="-0.5" y="0.5" width="75" height="75" transform="matrix(-1 0 0 1 224 300)" stroke="#CE3A8B"/>
<rect x="-0.5" y="0.5" width="74" height="75" transform="matrix(-1 0 0 1 149 300)" stroke="#CE3A8B"/>
<path d="M74.7701 300.5H0.5V374.77L37.1418 337.151L37.1417 337.151L37.1511 337.142L74.7701 300.5Z" stroke="#CE3A8B"/>
<rect x="-0.5" y="0.5" width="75" height="75" transform="matrix(-1 0 0 1 1119 375)" stroke="#CE3A8B"/>
<rect x="-0.5" y="0.5" width="74" height="75" transform="matrix(-1 0 0 1 1044 375)" stroke="#CE3A8B"/>
<rect x="-0.5" y="0.5" width="75" height="75" transform="matrix(-1 0 0 1 970 375)" stroke="#CE3A8B"/>
<rect x="-0.5" y="0.5" width="74" height="75" transform="matrix(-1 0 0 1 895 375)" stroke="#CE3A8B"/>
<path d="M783.646 412.646L820.793 375.5H746.5V449.793L783.646 412.646Z" stroke="#CE3A8B"/>
<rect x="-0.5" y="0.5" width="75" height="75" transform="matrix(-1 0 0 1 746 375)" stroke="#CE3A8B"/>
<rect x="-0.5" y="0.5" width="74" height="75" transform="matrix(-1 0 0 1 671 375)" stroke="#CE3A8B"/>
<rect x="-0.5" y="0.5" width="75" height="75" transform="matrix(-1 0 0 1 373 375)" stroke="#CE3A8B"/>
<rect x="-0.5" y="0.5" width="74" height="75" transform="matrix(-1 0 0 1 298 375)" stroke="#CE3A8B"/>
<rect x="-0.5" y="0.5" width="75" height="75" transform="matrix(-1 0 0 1 224 375)" stroke="#CE3A8B"/>
<rect x="-0.5" y="0.5" width="74" height="75" transform="matrix(-1 0 0 1 149 375)" stroke="#CE3A8B"/>
<rect x="-0.5" y="0.5" width="74" height="75" transform="matrix(-1 0 0 1 1044 450)" stroke="#CE3A8B"/>
<rect x="-0.5" y="0.5" width="75" height="75" transform="matrix(-1 0 0 1 970 450)" stroke="#CE3A8B"/>
<rect x="-0.5" y="0.5" width="74" height="75" transform="matrix(-1 0 0 1 895 450)" stroke="#CE3A8B"/>
<rect x="-0.5" y="0.5" width="75" height="75" transform="matrix(-1 0 0 1 821 450)" stroke="#CE3A8B"/>
<rect x="-0.5" y="0.5" width="75" height="75" transform="matrix(-1 0 0 1 746 450)" stroke="#CE3A8B"/>
<rect x="-0.5" y="0.5" width="74" height="75" transform="matrix(-1 0 0 1 671 450)" stroke="#CE3A8B"/>
<rect x="-0.5" y="0.5" width="75" height="75" transform="matrix(-1 0 0 1 597 450)" stroke="#CE3A8B"/>
<rect x="-0.5" y="0.5" width="74" height="75" transform="matrix(-1 0 0 1 522 450)" stroke="#CE3A8B"/>
<rect x="-0.5" y="0.5" width="75" height="75" transform="matrix(-1 0 0 1 448 450)" stroke="#CE3A8B"/>
<rect x="-0.5" y="0.5" width="75" height="75" transform="matrix(-1 0 0 1 373 450)" stroke="#CE3A8B"/>
<rect x="-0.5" y="0.5" width="74" height="75" transform="matrix(-1 0 0 1 298 450)" stroke="#CE3A8B"/>
<path d="M187.858 487.151L224.5 524.77V450.5H150.23L187.849 487.142L187.849 487.142L187.858 487.151Z" stroke="#CE3A8B"/>
<rect x="-0.5" y="0.5" width="74" height="75" transform="matrix(-1 0 0 1 149 450)" stroke="#CE3A8B"/>
<rect x="-0.5" y="0.5" width="74" height="75" transform="matrix(-1 0 0 1 1044 525)" stroke="#CE3A8B"/>
<rect x="-0.5" y="0.5" width="75" height="75" transform="matrix(-1 0 0 1 970 525)" stroke="#CE3A8B"/>
<rect x="-0.5" y="0.5" width="74" height="75" transform="matrix(-1 0 0 1 895 525)" stroke="#CE3A8B"/>
<rect x="-0.5" y="0.5" width="75" height="75" transform="matrix(-1 0 0 1 821 525)" stroke="#CE3A8B"/>
<rect x="-0.5" y="0.5" width="74" height="75" transform="matrix(-1 0 0 1 671 525)" stroke="#CE3A8B"/>
<rect x="-0.5" y="0.5" width="74" height="75" transform="matrix(-1 0 0 1 746 525)" stroke="#CE3A8B"/>
<rect x="-0.5" y="0.5" width="75" height="75" transform="matrix(-1 0 0 1 597 525)" stroke="#CE3A8B"/>
<rect x="-0.5" y="0.5" width="74" height="75" transform="matrix(-1 0 0 1 522 525)" stroke="#CE3A8B"/>
<rect x="-0.5" y="0.5" width="75" height="75" transform="matrix(-1 0 0 1 448 525)" stroke="#CE3A8B"/>
<rect x="-0.5" y="0.5" width="75" height="75" transform="matrix(-1 0 0 1 373 525)" stroke="#CE3A8B"/>
<rect x="-0.5" y="0.5" width="74" height="75" transform="matrix(-1 0 0 1 298 525)" stroke="#CE3A8B"/>
<path d="M709.858 562.151L746.5 599.77V525.5H672.23L709.849 562.142L709.849 562.142L709.858 562.151Z" stroke="#CE3A8B"/>
</svg>
